<svg xmlns="http://www.w3.org/2000/svg" xmlns:xlink="http://www.w3.org/1999/xlink" version="1.1" id="Layer_1" x="0px" y="0px" viewBox="0 0 533 533" style="enable-background:new 0 0 533 533;" xml:space="preserve">
<style type="text/css">
	.st0{fill:url(#SVGID_1_);}
</style>
<linearGradient id="SVGID_1_" gradientUnits="userSpaceOnUse" x1="52.7069" y1="266.8331" x2="475.8914" y2="266.8331">
	<stop offset="0" style="stop-color:#804D85"/>
	<stop offset="1" style="stop-color:#41BDBD"/>
</linearGradient>
<path class="st0" d="M56.3,191.2C67,227.9,99.4,252,133.8,252c7,0,13.9-1,20.6-3l9.3-2.7l24.2,82.6c0.9,3.1,3.2,5.7,6.2,7.1  l32.6,14.8c0,0.1,0.1,0.3,0.1,0.4l11.7,40.1c-0.7,1.5-3.8,4.5-5.7,6.3c-6.2,6-15.5,15.1-11.7,28.3c3.8,13.1,16.4,15.8,24.6,17.6  c2.6,0.5,5.1,1.2,7.5,2.1c-1.6,2.1-3.4,4.1-5.3,5.8c-6.1,6-15.3,15.1-11.4,28.2c0.5,1.8,1.5,3.5,2.8,4.8l28.8,28.8  c4.4,4.3,11.5,4.3,15.8-0.1c4.4-4.4,4.4-11.4,0.1-15.8l-25-25c1.5-1.7,3-3.4,4.7-4.9c6.1-6,15.3-15.1,11.4-28.2  c-3.8-13.1-16.4-15.8-24.6-17.6c-2.5-0.5-5-1.2-7.5-2.1c1.6-2.1,3.4-4.1,5.4-5.9c6.2-6,15.5-15.1,11.7-28.3l-6.6-22.4l15.6,7.1  c4,1.8,8.7,1.1,12-1.8c3.3-2.9,4.6-7.4,3.4-11.6l-39.3-134.2l55.1-16.1c6-1.7,9.4-8,7.6-13.9l-1.7-5.7l74.1,1.5h0.2  c3.5,0,6.9-1.7,9-4.5c2.1-2.8,2.8-6.5,1.8-9.9L348,25.1c-1-3.4-3.6-6.2-7-7.4c-3.4-1.2-7.1-0.8-10.1,1.2l-61.6,41.2l-1.7-5.7  c-1.7-6-8-9.4-13.9-7.6l-146,42.7C66.5,101.6,43.4,147.2,56.3,191.2z M130,181.9c-7.6-4.8-10.4-14.5-6.6-22.6c1.6-3.4,4.6-5.9,8.1-7  c1.1-0.3,2.3-0.5,3.5-0.5c2.5,0,5,0.7,7.1,2c7.6,4.8,10.4,14.5,6.6,22.6c-1.1,2.3-2.9,4.3-5.1,5.7c-2.1,0.1-4.1,0.7-5.8,1.8  C135.1,184,132.4,183.3,130,181.9z M256.2,339.5L208,317.7l-22.7-77.6l38.5-11.3L256.2,339.5z M330.7,46.1l34.9,119.4l-65.9-1.4  L276,82.8L330.7,46.1z M252.1,81.1c0,0,0,0.1,0,0.1l28.4,97c0,0,0,0.1,0,0.1l2.8,9.6l-118.9,34.8l-6.7-23c4.8-3.5,8.6-8,11.2-13.3  c9.1-18.6,2.5-41.1-15.2-51.9c-5-3-10.8-4.8-16.6-5.2l-6.7-23l118.9-34.8L252.1,81.1z M108.9,113l6.6,22.4  c-5.2,3.5-9.3,8.3-12.1,13.9c-9.1,18.6-2.5,41.1,15.2,51.9c5.3,3.2,11.4,5,17.7,5.2l6.6,22.4c-27.7,4.9-56.1-13.7-64.9-43.9  C69,154.8,82.8,123.8,108.9,113L108.9,113z M423.6,35.1c-1.5-6-7.7-9.7-13.7-8.1l-27.8,7.1c-3.9,1-7,4-8.1,7.8  c-1.1,3.9,0,8,2.8,10.9c2.8,2.9,7,4,10.9,3l27.8-7.1C421.5,47.3,425.1,41.1,423.6,35.1z M461.8,59.5l-43.6,11.1c-3.9,1-7,4-8.1,7.8  c-1.1,3.9,0,8,2.8,10.9c2.8,2.9,7,4,10.9,3l43.6-11.1c3.9-1,7-4,8.1-7.8c1.1-3.9,0-8.1-2.8-10.9C469.8,59.6,465.7,58.5,461.8,59.5z   M415.5,144.8c0.9,0,1.9-0.1,2.8-0.4l35.1-8.9c6-1.6,9.6-7.7,8.1-13.6c-1.5-6-7.6-9.6-13.6-8.1l-35.1,8.9c-5.5,1.4-9.1,6.7-8.4,12.3  C405.1,140.6,409.9,144.8,415.5,144.8z"/>
</svg>