<?xml version="1.0" encoding="utf-8"?>
<svg width="621px" height="575px" viewBox="0 0 621 575" version="1.1" xmlns:xlink="http://www.w3.org/1999/xlink" xmlns="http://www.w3.org/2000/svg">
  <defs>
    <linearGradient x1="-3.7118793E-05" y1="0.5002289" x2="0.999931" y2="0.5002289" id="gradient_1">
      <stop offset="0" stop-color="#804D85" />
      <stop offset="1" stop-color="#41BDBD" />
    </linearGradient>
    <path d="M0 0L453 0L453 453L0 453L0 0Z" id="path_1" />
    <path d="M0 0L450.465 0L450.465 450.465L0 450.465L0 0L0 0Z" id="path_2" />
    <clipPath id="mask_1">
      <use xlink:href="#path_1" />
    </clipPath>
    <clipPath id="mask_2">
      <use xlink:href="#path_2" />
    </clipPath>
  </defs>
  <g id="logo" transform="translate(84.5 61.5)">
    <path d="M0 0L453 0L453 453L0 453L0 0Z" id="Background" fill="none" fill-rule="evenodd" stroke="none" />
    <g clip-path="url(#mask_1)">
      <g id="16911509661580359487" transform="translate(1.2677307 1.2677307)">
        <path d="M0 0L450.465 0L450.465 450.465L0 450.465L0 0L0 0Z" id="Background" fill="none" fill-rule="evenodd" stroke="none" />
        <g id="Mask-group">
          <path d="M0 0L450.465 0L450.465 450.465L0 450.465L0 0L0 0Z" id="path_1" fill="none" fill-rule="evenodd" stroke="none" />
          <g clip-path="url(#mask_2)">
            <g id="Group" transform="translate(44.55847 14.388657)">
              <path d="M3.02342 147.204C12.0665 178.221 39.4494 198.589 68.5225 198.589C74.4386 198.589 80.2701 197.744 85.9322 196.053L93.7921 193.772L114.245 263.581C115.005 266.201 116.949 268.398 119.485 269.581L147.037 282.09C147.037 282.174 147.121 282.343 147.121 282.428L157.009 316.318C156.418 317.586 153.798 320.121 152.192 321.643C146.952 326.714 139.092 334.404 142.304 345.56C145.515 356.632 156.164 358.914 163.094 360.435C165.292 360.858 167.405 361.449 169.433 362.21C168.081 363.985 166.559 365.675 164.954 367.112C159.798 372.183 152.023 379.873 155.319 390.945C155.742 392.466 156.587 393.903 157.685 395.002L182.026 419.342C185.744 422.976 191.745 422.976 195.379 419.257C199.098 415.539 199.098 409.623 195.464 405.904L174.335 384.775C175.603 383.339 176.87 381.902 178.307 380.634C183.462 375.563 191.238 367.872 187.942 356.801C184.73 345.729 174.081 343.448 167.151 341.926C165.038 341.504 162.925 340.912 160.812 340.151C162.165 338.377 163.686 336.686 165.376 335.165C170.616 330.094 178.476 322.403 175.265 311.247L169.687 292.316L182.871 298.317C186.251 299.838 190.224 299.246 193.013 296.795C195.802 294.344 196.9 290.541 195.886 286.992L162.672 173.573L209.24 159.966C214.31 158.529 217.184 153.204 215.663 148.218L214.226 143.401L276.851 144.668L277.021 144.668C279.979 144.668 282.852 143.232 284.627 140.865C286.402 138.499 286.993 135.372 286.148 132.498L249.553 6.82458C248.708 3.95107 246.511 1.58465 243.637 0.570475C240.764 -0.443705 237.637 -0.105644 235.101 1.58465L183.04 36.4048L181.603 31.5875C180.166 26.5166 174.842 23.643 169.856 25.1643L46.4641 61.2522C11.644 71.4785 -7.879 110.017 3.02342 147.204L3.02342 147.204L3.02342 147.204ZM65.3109 139.344C58.8878 135.287 56.5214 127.089 59.733 120.244C61.0852 117.37 63.6206 115.257 66.5787 114.328C67.5083 114.074 68.5225 113.905 69.5367 113.905C71.6496 113.905 73.7624 114.497 75.5372 115.595C81.9604 119.652 84.3268 127.85 81.1152 134.696C80.1856 136.64 78.6643 138.33 76.805 139.513C75.0302 139.598 73.3399 140.105 71.9031 141.034C69.6212 141.119 67.3393 140.527 65.3109 139.344L65.3109 139.344L65.3109 139.344ZM171.968 272.54L131.232 254.115L112.047 188.532L144.586 178.981L171.968 272.54L171.968 272.54L171.968 272.54ZM234.932 24.5727L264.428 125.484L208.732 124.3L188.702 55.5897L234.932 24.5727L234.932 24.5727L234.932 24.5727ZM168.503 54.1529C168.503 54.1529 168.503 54.2375 168.503 54.2375L192.506 136.217C192.506 136.217 192.506 136.301 192.506 136.301L194.872 144.415L94.3837 173.826L88.7212 154.388C92.7779 151.43 95.9895 147.626 98.1869 143.147C105.878 127.427 100.3 108.412 85.3406 99.2839C81.1152 96.7485 76.2134 95.2272 71.3115 94.8891L65.649 75.4507L166.137 46.0395L168.503 54.1529L168.503 54.1529L168.503 54.1529ZM47.4783 81.1132L53.0563 100.045C48.6615 103.003 45.1964 107.059 42.83 111.792C35.1391 127.512 40.7171 146.528 55.6762 155.655C60.1555 158.36 65.3109 159.881 70.6354 160.05L76.2133 178.981C52.8027 183.123 28.8005 167.403 21.3632 141.879C13.7568 116.44 25.4199 90.2408 47.4783 81.1132L47.4783 81.1132L47.4783 81.1132L47.4783 81.1132ZM313.446 15.2761C312.179 10.2052 306.939 7.07811 301.868 8.43035L278.373 14.4309C275.077 15.2761 272.457 17.8115 271.527 21.0231C270.597 24.3192 271.527 27.7843 273.893 30.2352C276.26 32.6861 279.809 33.6158 283.106 32.7707L306.601 26.7701C311.672 25.5869 314.714 20.347 313.446 15.2761L313.446 15.2761L313.446 15.2761ZM345.731 35.8977L308.883 45.2789C305.587 46.124 302.967 48.6595 302.037 51.871C301.107 55.1671 302.037 58.6322 304.403 61.0832C306.77 63.5341 310.319 64.4638 313.615 63.6186L350.464 54.2375C353.76 53.3923 356.38 50.8569 357.31 47.6453C358.239 44.3492 357.31 40.7996 354.943 38.4332C352.492 35.9822 349.027 35.0526 345.731 35.8977L345.731 35.8977L345.731 35.8977ZM306.601 107.989C307.361 107.989 308.206 107.904 308.967 107.651L338.632 100.129C343.703 98.7768 346.745 93.6214 345.478 88.635C344.21 83.5641 339.054 80.5216 333.984 81.7893L304.319 89.3112C299.67 90.4944 296.628 94.9737 297.22 99.7065C297.811 104.439 301.868 107.989 306.601 107.989L306.601 107.989L306.601 107.989Z" id="Shape" fill="url(#gradient_1)" fill-rule="evenodd" stroke="#000000" stroke-width="3" />
            </g>
          </g>
        </g>
      </g>
      <path d="M0 0L29.5802 101.418" transform="translate(280.58957 39.722015)" id="Line-4" fill="none" fill-rule="evenodd" stroke="#000000" stroke-width="3" stroke-linecap="square" />
      <path d="M0 31.2705L45.638 0" transform="translate(234.95149 39.722015)" id="Line-3" fill="none" fill-rule="evenodd" stroke="#000000" stroke-width="3" stroke-linecap="square" />
      <path d="M0 0L20.2836 69.7248" transform="translate(234.95149 70.99254)" id="Line-2" fill="none" fill-rule="evenodd" stroke="#000000" stroke-width="3" stroke-linecap="square" />
      <path d="M0 0L54.9347 0.845154" transform="translate(255.23508 141.13992)" id="Line" fill="none" fill-rule="evenodd" stroke="#000000" stroke-width="3" stroke-linecap="square" />
      <path d="M2.29694 19.3423C-1.6606 13.0089 -0.376368 5.0675 5.16537 1.60464C10.7071 -1.85822 18.4078 0.468845 22.3653 6.80224C26.3229 13.1357 25.0386 21.0771 19.4969 24.5399C13.9552 28.0028 6.25451 25.6758 2.29694 19.3423L2.29694 19.3423Z" transform="translate(103.876884 130.18053)" id="Ellipse" fill="none" fill-rule="evenodd" stroke="#070707" stroke-width="3" />
    </g>
  </g>
  <path d="M0 280C0 125.36 135.658 0 303 0C470.342 0 606 125.36 606 280C606 434.64 470.342 560 303 560C135.658 560 0 434.64 0 280Z" transform="translate(7.5 7.5)" id="Ellipse" fill="none" fill-rule="evenodd" stroke="#000000" stroke-width="15" />
</svg>