<?xml version="1.0" encoding="utf-8"?>
<svg width="536px" height="536px" viewBox="0 0 536 536" version="1.1" xmlns:xlink="http://www.w3.org/1999/xlink" xmlns="http://www.w3.org/2000/svg">
  <defs>
    <linearGradient x1="-3.7118793E-05" y1="0.5002289" x2="0.999931" y2="0.5002289" id="gradient_1">
      <stop offset="0" stop-color="#804D85" />
      <stop offset="1" stop-color="#41BDBD" />
    </linearGradient>
    <path d="M0 0L533 0L533 533L0 533L0 0Z" id="path_1" />
    <clipPath id="mask_1">
      <use xlink:href="#path_1" />
    </clipPath>
  </defs>
  <g id="16911509661580359487" transform="translate(1.5 1.5)">
    <path d="M0 0L533 0L533 533L0 533L0 0Z" id="Background" fill="none" fill-rule="evenodd" stroke="none" />
    <g clip-path="url(#mask_1)">
      <path d="M3.57739 174.175C14.2774 210.875 46.6774 234.975 81.0774 234.975C88.0774 234.975 94.9774 233.975 101.677 231.975L110.977 229.275L135.177 311.875C136.077 314.975 138.377 317.575 141.377 318.975L173.977 333.775C173.977 333.875 174.077 334.075 174.077 334.175L185.777 374.275C185.077 375.775 181.977 378.775 180.077 380.575C173.877 386.575 164.577 395.675 168.377 408.875C172.177 421.975 184.777 424.675 192.977 426.475C195.577 426.975 198.077 427.675 200.477 428.575C198.877 430.675 197.077 432.675 195.177 434.375C189.077 440.375 179.877 449.475 183.777 462.575C184.277 464.375 185.277 466.075 186.577 467.375L215.377 496.175C219.777 500.475 226.877 500.475 231.177 496.075C235.577 491.675 235.577 484.675 231.277 480.275L206.277 455.275C207.777 453.575 209.277 451.875 210.977 450.375C217.077 444.375 226.277 435.275 222.377 422.175C218.577 409.075 205.977 406.375 197.777 404.575C195.277 404.075 192.777 403.375 190.277 402.475C191.877 400.375 193.677 398.375 195.677 396.575C201.877 390.575 211.177 381.475 207.377 368.275L200.777 345.875L216.377 352.975C220.377 354.775 225.077 354.075 228.377 351.175C231.677 348.275 232.977 343.775 231.777 339.575L192.477 205.375L247.577 189.275C253.577 187.575 256.977 181.275 255.177 175.375L253.477 169.675L327.577 171.175L327.777 171.175C331.277 171.175 334.677 169.475 336.777 166.675C338.877 163.875 339.577 160.175 338.577 156.775L295.277 8.075C294.277 4.675 291.677 1.875 288.277 0.674999C284.877 -0.525002 281.177 -0.125 278.177 1.875L216.577 43.075L214.877 37.375C213.177 31.375 206.877 27.975 200.977 29.775L54.9774 72.475C13.7774 84.575 -9.32261 130.175 3.57739 174.175L3.57739 174.175ZM77.2774 164.875C69.6774 160.075 66.8774 150.375 70.6774 142.275C72.2774 138.875 75.2774 136.375 78.7774 135.275C79.8774 134.975 81.0774 134.775 82.2774 134.775C84.7774 134.775 87.2774 135.475 89.3774 136.775C96.9774 141.575 99.7774 151.275 95.9774 159.375C94.8774 161.675 93.0774 163.675 90.8774 165.075C88.7774 165.175 86.7774 165.775 85.0774 166.875C82.3774 166.975 79.6774 166.275 77.2774 164.875L77.2774 164.875ZM203.477 322.475L155.277 300.675L132.577 223.075L171.077 211.775L203.477 322.475L203.477 322.475ZM277.977 29.075L312.877 148.475L246.977 147.075L223.277 65.775L277.977 29.075L277.977 29.075ZM199.377 64.075C199.377 64.075 199.377 64.175 199.377 64.175L227.777 161.175C227.777 161.175 227.777 161.275 227.777 161.275L230.577 170.875L111.677 205.675L104.977 182.675C109.777 179.175 113.577 174.675 116.177 169.375C125.277 150.775 118.677 128.275 100.977 117.475C95.9774 114.475 90.1774 112.675 84.3774 112.275L77.6774 89.275L196.577 54.475L199.377 64.075L199.377 64.075ZM56.1774 95.975L62.7774 118.375C57.5774 121.875 53.4774 126.675 50.6774 132.275C41.5774 150.875 48.1774 173.375 65.8774 184.175C71.1774 187.375 77.2774 189.175 83.5774 189.375L90.1774 211.775C62.4774 216.675 34.0774 198.075 25.2774 167.875C16.2774 137.775 30.0774 106.775 56.1774 95.975L56.1774 95.975L56.1774 95.975ZM370.877 18.075C369.377 12.075 363.177 8.37499 357.177 9.97499L329.377 17.075C325.477 18.075 322.377 21.075 321.277 24.875C320.177 28.775 321.277 32.875 324.077 35.775C326.877 38.675 331.077 39.775 334.977 38.775L362.777 31.675C368.777 30.275 372.377 24.075 370.877 18.075L370.877 18.075ZM409.077 42.475L365.477 53.575C361.577 54.575 358.477 57.575 357.377 61.375C356.277 65.275 357.377 69.375 360.177 72.275C362.977 75.175 367.177 76.275 371.077 75.275L414.677 64.175C418.577 63.175 421.677 60.175 422.777 56.375C423.877 52.475 422.777 48.275 419.977 45.475C417.077 42.575 412.977 41.475 409.077 42.475L409.077 42.475ZM362.777 127.775C363.677 127.775 364.677 127.675 365.577 127.375L400.677 118.475C406.677 116.875 410.277 110.775 408.777 104.875C407.277 98.875 401.177 95.275 395.177 96.775L360.077 105.675C354.577 107.075 350.977 112.375 351.677 117.975C352.377 123.575 357.177 127.775 362.777 127.775L362.777 127.775Z" transform="translate(52.72261 17.024994)" id="Shape" fill="url(#gradient_1)" fill-rule="evenodd" stroke="#000000" stroke-width="3" />
    </g>
  </g>
  <path d="M0 0L35 120" transform="translate(332 47)" id="Line-4" fill="none" fill-rule="evenodd" stroke="#000000" stroke-width="3" stroke-linecap="square" />
  <path d="M0 37L54 0" transform="translate(278 47)" id="Line-3" fill="none" fill-rule="evenodd" stroke="#000000" stroke-width="3" stroke-linecap="square" />
  <path d="M0 0L24 82.5" transform="translate(278 84)" id="Line-2" fill="none" fill-rule="evenodd" stroke="#000000" stroke-width="3" stroke-linecap="square" />
  <path d="M0 0L65 1" transform="translate(302 167)" id="Line" fill="none" fill-rule="evenodd" stroke="#000000" stroke-width="3" stroke-linecap="square" />
  <path d="M0 16C0 7.16344 6.26801 0 14 0C21.732 0 28 7.16344 28 16C28 24.8366 21.732 32 14 32C6.26801 32 0 24.8366 0 16Z" transform="matrix(0.8480483 -0.5299189 0.5299189 0.8480483 117.148605 163.3501)" id="Ellipse" fill="none" fill-rule="evenodd" stroke="#070707" stroke-width="3" />
</svg>